<svg width="256" height="256" viewBox="0 0 256 256" fill="none" xmlns="http://www.w3.org/2000/svg">
<g id="Artboard Copy 2" clip-path="url(#clip0_7_3)">
<rect width="128" height="128" transform="scale(2)" fill="white"/>
<g id="Frame">
<path id="Vector" d="M92 104C92 105.061 91.5786 106.078 90.8284 106.828C90.0783 107.579 89.0609 108 88 108C86.9391 108 85.9217 107.579 85.1716 106.828C84.4214 106.078 84 105.061 84 104C84 102.939 84.4214 101.922 85.1716 101.172C85.9217 100.421 86.9391 100 88 100C89.0609 100 90.0783 100.421 90.8284 101.172C91.5786 101.922 92 102.939 92 104ZM92 104H88M132 104C132 105.061 131.579 106.078 130.828 106.828C130.078 107.579 129.061 108 128 108C126.939 108 125.922 107.579 125.172 106.828C124.421 106.078 124 105.061 124 104C124 102.939 124.421 101.922 125.172 101.172C125.922 100.421 126.939 100 128 100C129.061 100 130.078 100.421 130.828 101.172C131.579 101.922 132 102.939 132 104ZM132 104H128M172 104C172 105.061 171.579 106.078 170.828 106.828C170.078 107.579 169.061 108 168 108C166.939 108 165.922 107.579 165.172 106.828C164.421 106.078 164 105.061 164 104C164 102.939 164.421 101.922 165.172 101.172C165.922 100.421 166.939 100 168 100C169.061 100 170.078 100.421 170.828 101.172C171.579 101.922 172 102.939 172 104ZM172 104H168M24 136.107C24 153.173 35.9787 168.043 52.8747 170.528C64.4693 172.235 76.1813 173.547 88 174.464V224L132.629 179.381C134.839 177.18 137.81 175.913 140.928 175.84C161.745 175.328 182.512 173.554 203.115 170.528C220.021 168.043 232 153.184 232 136.096V71.904C232 54.816 220.021 39.9574 203.125 37.472C178.25 33.821 153.142 31.9921 128 32C102.485 32 77.3973 33.8667 52.8747 37.472C35.9787 39.9574 24 54.8267 24 71.904V136.096V136.107Z" stroke="black" stroke-width="8" stroke-linecap="round" stroke-linejoin="round"/>
</g>
</g>
<defs>
<clipPath id="clip0_7_3">
<rect width="128" height="128" fill="white" transform="scale(2)"/>
</clipPath>
</defs>
</svg>
